<svg width="32" height="32" fill="none" xmlns="http://www.w3.org/2000/svg"><path d="M23.985 6.56c-.649.165-1.052.376-3.904 2.054l-2.671 1.571-3.678-1.227c-2.469-.823-3.723-1.217-3.812-1.198-.073.016-.659.25-1.301.521-1.512.638-1.784.862-1.983 1.639-.073.283-.076.389-.023.662.119.612.211.719 1.956 2.286.889.799 1.617 1.468 1.617 1.488 0 .02-.501.323-1.113.673l-1.114.637-1.619-.697c-1.179-.507-1.678-.697-1.833-.697-.152 0-.566.152-1.44.528-1.104.476-1.254.556-1.499.799a1.74 1.74 0 0 0-.217 2.189c.159.235 4.95 4.742 5.396 5.077.735.552 1.612.861 2.578.908.9.043 1.558-.097 2.382-.507.48-.24 19.034-11.022 19.272-11.2a.915.915 0 0 0 .255-.315c.137-.329.042-.49-1.195-2.003-.63-.771-1.275-1.55-1.434-1.732-.555-.634-1.399-1.159-2.258-1.404-.596-.17-1.794-.197-2.362-.052m1.903 1.492c.485.124.921.345 1.272.646.139.119.686.747 1.216 1.394.776.949.95 1.19.894 1.242-.039.035-4.171 2.447-9.184 5.36-6.118 3.554-9.239 5.339-9.494 5.428-.749.261-1.671.207-2.408-.142-.457-.217-.767-.485-3.324-2.885-2.311-2.168-2.421-2.289-2.233-2.445.085-.069 1.801-.81 1.879-.81.031 0 .788.315 1.682.699 1.1.473 1.69.7 1.824.701.163.001.549-.198 2.096-1.081 1.864-1.063 2.029-1.179 2.154-1.507.131-.344.079-.402-2.108-2.371-1.902-1.713-2.051-1.86-2.037-2.006.016-.151.06-.177.923-.548.499-.215.943-.391.987-.392.044-.001 1.7.538 3.68 1.198 2.328.777 3.675 1.2 3.815 1.2.188 0 .582-.214 2.987-1.631 3.072-1.809 3.36-1.966 3.8-2.073.452-.109 1.098-.1 1.579.023M2.672 26.31c-.364.127-.524.58-.359 1.012.172.451-.771.411 9.687.411s9.515.04 9.687-.411c.165-.432.005-.885-.359-1.012-.263-.092-18.393-.092-18.656 0" fill-rule="evenodd" fill="#000"/></svg>