<svg width="32" height="32" fill="none" xmlns="http://www.w3.org/2000/svg"><path d="M3.479 4.718c-.57.178-.982.611-1.158 1.218-.077.263-.084.719-.068 4.047.017 3.707.019 3.755.138 4.17.439 1.531 1.565 2.772 2.965 3.269.668.237 22.514 6.311 22.698 6.311.12 0 .291-.037.38-.083.309-.16.313-.195.312-3.022-.001-2.306-.011-2.625-.101-3.058-.316-1.536-1.446-2.883-2.874-3.427-.226-.087-1.731-.523-3.344-.97l-2.934-.813-1.951-3.42c-1.526-2.673-1.99-3.446-2.127-3.539-.096-.065-.585-.256-1.088-.424-.804-.27-.965-.306-1.34-.307-.327-.001-.486.025-.679.114-.352.161-.753.554-.902.885-.124.274-.126.306-.142 2.294-.015 1.99-.017 2.016-.122 1.982l-1.363-.426A33.792 33.792 0 0 1 8.51 9.11c-.007-.009-.427-.797-.934-1.75-.506-.953-.983-1.799-1.058-1.88-.106-.113-.378-.226-1.189-.493-1.122-.371-1.396-.41-1.85-.269m1.274 1.657.726.243.926 1.744c.51.96.999 1.818 1.087 1.907.141.142.442.25 2.35.844 2.329.725 2.364.732 2.632.493.269-.239.273-.281.273-2.88 0-2.134.01-2.435.083-2.509.047-.046.113-.084.147-.084.035 0 .388.109.785.241l.722.241 1.968 3.443c1.213 2.121 2.021 3.48 2.105 3.539.075.053 1.576.497 3.336.986 2.354.654 3.305.941 3.598 1.086.526.262 1.074.802 1.356 1.34.364.691.367.716.392 2.972l.023 2.035-.444-.125-10.645-2.981c-5.759-1.612-10.355-2.926-10.555-3.017-.678-.307-1.294-.941-1.597-1.642-.255-.59-.251-.526-.274-4.295-.019-3.193-.012-3.577.064-3.693.047-.071.114-.13.15-.13.036 0 .392.109.792.242m6.951 19.922c-.384.112-.567.628-.38 1.074.164.394-.653.365 9.745.349l9.34-.013.148-.166c.374-.419.183-1.166-.324-1.268-.263-.052-18.347-.029-18.529.024" fill-rule="evenodd" fill="#000"/></svg>