<svg width="32" height="32" fill="none" xmlns="http://www.w3.org/2000/svg"><path d="M14.72 4.325a11.845 11.845 0 0 0-6.756 3.11c-.493.46-.597.662-.498.961.064.197.395.53.586.59.255.081.466-.022.945-.459 1.424-1.302 2.969-2.119 4.763-2.519 3.105-.691 6.392.103 8.795 2.124.223.188 1.137 1.074 2.031 1.971l1.627 1.63h-2.229c-2.457 0-2.459 0-2.629.33-.117.226-.082.741.062.902.229.258.236.258 3.614.263 3.066.005 3.181.001 3.382-.101.404-.206.393-.096.376-3.714-.018-3.634.003-3.459-.439-3.628-.46-.175-.933.002-1.041.391-.034.12-.055 1.032-.055 2.328l-.001 2.13-1.8-1.787c-.99-.983-1.993-1.933-2.229-2.111-1.841-1.39-3.794-2.174-6.009-2.413-.595-.065-1.909-.063-2.495.002M3.584 18.863a.71.71 0 0 0-.282.294c-.103.2-.105.307-.091 3.418.017 3.526.009 3.437.339 3.614.225.12.73.101.913-.034.266-.197.277-.304.281-2.633l.003-2.158 1.773 1.763c.975.969 1.946 1.899 2.158 2.065a12.024 12.024 0 0 0 4.359 2.17c1.181.306 1.493.342 2.963.342s1.782-.036 2.963-.342a11.817 11.817 0 0 0 5.094-2.813c.583-.55.649-.838.284-1.242-.416-.46-.683-.427-1.334.17-2.526 2.315-5.821 3.234-9.133 2.548-1.51-.314-3.12-1.081-4.327-2.065-.22-.179-1.156-1.084-2.08-2.01l-1.68-1.683h2.229c2.457 0 2.459 0 2.629-.33.061-.118.08-.259.064-.478-.026-.363-.163-.548-.465-.632-.116-.032-1.415-.053-3.337-.052-2.8.001-3.166.01-3.323.088" fill-rule="evenodd" fill="#000"/></svg>