<svg width="32" height="32" fill="none" xmlns="http://www.w3.org/2000/svg"><path d="M5.493 5.484c-.249.24-.266.274-.266.519v.263l5.24 5.237c3.578 3.577 5.286 5.249 5.386 5.273.081.02.213.02.294 0 .1-.024 1.808-1.696 5.386-5.273l5.24-5.237v-.263c0-.245-.017-.279-.266-.519-.242-.234-.29-.257-.519-.257h-.252l-4.868 4.866L16 14.959l-4.868-4.866-4.868-4.866h-.252c-.229 0-.277.023-.519.257m.24 9.8c-.448.234-.625.657-.43 1.025.093.175 10.248 10.322 10.413 10.405.15.076.418.076.568 0 .165-.083 10.32-10.23 10.413-10.405.208-.392-.068-.933-.552-1.08-.335-.102-.253-.178-5.305 4.869L16 24.932l-4.813-4.81c-2.703-2.701-4.88-4.835-4.964-4.866-.203-.076-.301-.07-.49.028" fill-rule="evenodd" fill="#000"/></svg>