<svg width="32" height="32" fill="none" xmlns="http://www.w3.org/2000/svg"><path d="M15.707 5.288c-.166.09-10.317 10.24-10.404 10.403-.208.392.068.933.552 1.08.335.102.253.178 5.305-4.869L16 7.068l4.84 4.834c5.052 5.047 4.97 4.971 5.305 4.869.189-.057.46-.281.548-.451.095-.183.104-.441.021-.604-.083-.165-10.23-10.32-10.405-10.413-.169-.09-.452-.097-.602-.015m0 10.013c-.088.056-2.482 2.426-5.32 5.268l-5.16 5.166v.26c0 .24.02.28.259.519.239.239.279.259.519.259h.26l4.868-4.866L16 17.041l4.867 4.866 4.868 4.866h.26c.24 0 .28-.02.519-.259.239-.239.259-.279.259-.519v-.26l-5.186-5.191c-2.853-2.855-5.252-5.225-5.331-5.268-.195-.103-.358-.095-.549.025" fill-rule="evenodd" fill="#000"/></svg>