<svg width="32" height="32" fill="none" xmlns="http://www.w3.org/2000/svg"><path d="M15.484 4.394c-.29.094-.535.249-.752.474-.097.099-1.035 1.727-2.085 3.616-1.653 2.974-1.927 3.438-2.04 3.452-.08.009-1.281-.497-3.142-1.326a219.137 219.137 0 0 0-3.346-1.469c-1.22-.466-2.449.366-2.42 1.638.008.341 3.186 13.873 3.337 14.21.174.387.418.638.803.828.5.246.817.256 1.601.051 2.918-.762 5.494-1.09 8.56-1.09 3.066 0 5.642.328 8.56 1.09.486.127.713.161.944.142.643-.055 1.268-.514 1.484-1.091.059-.16.83-3.354 1.711-7.098 1.508-6.401 1.602-6.832 1.581-7.208-.052-.924-.759-1.598-1.679-1.599-.491-.001-.389-.041-4.066 1.596-1.861.829-3.062 1.335-3.142 1.326-.113-.014-.388-.478-2.04-3.452-1.236-2.224-1.981-3.509-2.112-3.643-.424-.435-1.196-.631-1.757-.447m.668 1.486c.037.037.912 1.59 1.944 3.452 1.382 2.491 1.938 3.446 2.107 3.617.381.386.957.576 1.489.489.181-.029 1.449-.564 3.536-1.492 1.799-.799 3.305-1.439 3.368-1.43.062.01.139.058.17.108.044.07-.308 1.646-1.531 6.853a3338.35 3338.35 0 0 1-1.615 6.856c-.057.198-.209.212-.739.071-1.894-.504-3.87-.839-6.214-1.054-.943-.086-4.391-.086-5.334 0-2.336.214-4.41.566-6.225 1.056-.518.14-.669.125-.729-.073C6.299 24.074 3.2 10.81 3.2 10.729c0-.124.102-.222.23-.222.057 0 1.558.646 3.336 1.435 1.998.887 3.346 1.457 3.527 1.489a1.715 1.715 0 0 0 1.504-.482c.169-.171.725-1.126 2.107-3.617 1.032-1.862 1.907-3.415 1.944-3.452A.25.25 0 0 1 16 5.813a.25.25 0 0 1 .152.067m-2.205 13.431c-2.059.114-2.505.202-2.638.522-.092.223-.046.67.088.851.203.274.335.301 1.136.23a64.263 64.263 0 0 1 2.094-.125c1.422-.064 3.215-.018 4.84.125.608.054.745.052.876-.012.229-.112.362-.327.391-.631.058-.597-.178-.764-1.214-.855-1.806-.158-3.904-.198-5.573-.105" fill-rule="evenodd" fill="#000"/></svg>