<svg width="32" height="32" fill="none" xmlns="http://www.w3.org/2000/svg"><path d="M15.592 4.106a2.157 2.157 0 0 0-1.032.588c-.172.183-.766 1.203-2.107 3.621-1.026 1.851-1.887 3.365-1.912 3.365-.025 0-1.513-.654-3.307-1.453L3.973 8.773H3.44c-.467 0-.571.018-.839.144a2.031 2.031 0 0 0-1.148 1.67c-.022.344.104.914 1.61 7.333 1.095 4.664 1.679 7.052 1.769 7.239.264.546.825.961 1.461 1.082.347.066.486.048 1.46-.195 5.574-1.387 11.052-1.383 16.52.011.924.236 1.361.255 1.822.079.4-.153.896-.607 1.07-.98.079-.17.76-2.954 1.768-7.236 1.515-6.436 1.637-6.988 1.614-7.333a2.03 2.03 0 0 0-1.148-1.67c-.268-.126-.372-.144-.839-.144h-.533l-3.261 1.454c-1.794.799-3.282 1.453-3.307 1.453-.025 0-.886-1.514-1.912-3.365-1.323-2.386-1.937-3.441-2.107-3.624-.436-.469-1.222-.718-1.848-.585m1.795 14.935c1.567.06 2.866.174 3.047.267.363.188.543.49.544.911 0 .34-.135.612-.395.797-.285.203-.444.216-1.463.12-1.354-.128-4.888-.128-6.244 0-1.045.099-1.172.086-1.495-.154-.224-.166-.341-.433-.341-.778 0-.356.127-.607.409-.807.193-.137.285-.158 1.035-.231.685-.066 2.009-.135 3.276-.17.147-.004.879.016 1.627.045"/></svg>