<svg width="32" height="32" fill="none" xmlns="http://www.w3.org/2000/svg"><path d="M9.493 2.301c-1.016.166-1.967 1.088-2.181 2.115-.083.4-.083 22.768 0 23.168.103.492.355.945.737 1.327.437.436.724.606 1.257.742.406.104.591.107 6.694.107s6.288-.003 6.694-.107c.533-.136.82-.306 1.257-.742.382-.382.634-.835.737-1.327.083-.4.083-22.768 0-23.168-.22-1.052-1.167-1.951-2.235-2.12-.435-.069-12.537-.065-12.96.005m13.014 1.558c.262.14.47.345.604.594.098.184.116.322.133 1l.019.787H8.737l.019-.787c.015-.636.038-.822.118-.973.199-.378.506-.619.886-.697.103-.021 2.971-.035 6.373-.031 5.926.008 6.195.012 6.374.107M23.253 16v8.267H8.747V7.733h14.506V16m-.009 10.547c-.015.636-.038.822-.118.973-.137.26-.342.47-.593.605l-.213.115H9.68l-.213-.115a1.448 1.448 0 0 1-.593-.605c-.08-.151-.103-.337-.118-.973l-.019-.787h14.526l-.019.787" fill-rule="evenodd" fill="#000"/></svg>