<svg width="32" height="32" fill="none" xmlns="http://www.w3.org/2000/svg"><path d="M15.704 2.294a.822.822 0 0 0-.294.189l-.13.139-.014 5.794-.014 5.793-2.495-2.491-2.495-2.491h-.251c-.228 0-.276.024-.518.257-.248.239-.266.274-.266.518v.262l3.053 3.07a410.036 410.036 0 0 1 3.178 3.214c.27.311.814.311 1.084 0 .068-.079 1.499-1.526 3.178-3.214l3.053-3.07v-.262c0-.244-.018-.279-.266-.518-.242-.233-.29-.257-.518-.257h-.251l-2.496 2.492-2.495 2.492-.001-5.732c0-5.582-.002-5.737-.103-5.902a.738.738 0 0 0-.211-.228c-.157-.083-.54-.113-.728-.055M3.52 15.326a1.742 1.742 0 0 0-1.225 1.314c-.045.214-.057 1.443-.045 4.533l.017 4.24.138.294c.182.388.574.767.95.919l.298.121h24.694l.298-.121c.376-.152.768-.531.95-.919l.138-.294.017-4.24c.013-3.118 0-4.317-.046-4.533-.117-.545-.458-.97-.986-1.23l-.265-.13-3.317-.015c-3.613-.017-3.584-.019-3.781.281-.126.193-.126.715 0 .908.193.293.186.293 3.602.293h3.147l.082.125c.073.111.081.602.068 4.184-.011 3.244-.028 4.073-.083 4.128-.103.103-24.239.103-24.342 0-.055-.055-.072-.884-.083-4.128-.013-3.582-.005-4.073.068-4.184l.082-.125h3.147c3.416 0 3.409 0 3.602-.293.126-.193.126-.715 0-.908-.193-.294-.178-.293-3.67-.289-2.376.003-3.278.021-3.455.069m19.733 4.458c-1.15.227-1.361 1.794-.311 2.317.874.436 1.877-.236 1.79-1.197-.031-.341-.122-.546-.34-.764a1.303 1.303 0 0 0-1.139-.356" fill-rule="evenodd" fill="#000"/></svg>