<svg width="32" height="32" fill="none" xmlns="http://www.w3.org/2000/svg"><path d="M14.773 3.313c-4.3.38-8.321 3.159-10.214 7.06-2.175 4.483-1.6 9.733 1.491 13.6.41.514 1.407 1.515 1.923 1.931A12.734 12.734 0 0 0 20.4 27.961a13.158 13.158 0 0 0 3.573-2.011c.514-.41 1.515-1.407 1.931-1.923a12.773 12.773 0 0 0 2.431-11.254c-.329-1.266-.955-2.674-1.662-3.736-.564-.847-.905-1.266-1.608-1.978-2.712-2.748-6.4-4.09-10.292-3.746m1.961 1.972c1.756.852 3.24 4.814 3.459 9.235l.037.733h-8.46l.037-.733c.188-3.809 1.277-7.229 2.78-8.732.709-.708 1.393-.868 2.147-.503m-4.018.424c-.794 1.175-1.444 2.8-1.859 4.652-.3 1.337-.43 2.319-.597 4.506l-.029.386H4.8v-.193c0-.629.338-2.163.661-2.999 1.253-3.244 3.777-5.665 7.046-6.757a9.6 9.6 0 0 1 .57-.181c.02-.002-.142.262-.361.586m6.72-.425c.203.062.623.221.934.353 3.412 1.452 5.901 4.479 6.637 8.07.075.366.152.864.172 1.106l.036.44h-5.447l-.027-.333-.111-1.356c-.258-3.166-1.115-6.033-2.349-7.859-.248-.367-.365-.581-.307-.563l.462.142M10.26 17.133c.167 2.187.297 3.169.597 4.506.415 1.852 1.065 3.477 1.859 4.652.219.324.389.589.377.589-.011 0-.268-.081-.57-.181a11.303 11.303 0 0 1-6.888-6.333c-.417-.982-.737-2.226-.813-3.173l-.037-.446h5.446l.029.386m9.933.347c-.184 3.73-1.256 7.158-2.706 8.656-.398.411-.729.623-1.138.731-.33.086-.368.086-.698 0-1.934-.508-3.607-4.592-3.844-9.387l-.037-.733h8.46l-.037.733m6.986-.293c-.05.611-.274 1.669-.491 2.318-1.144 3.425-3.758 6.037-7.191 7.186a12.78 12.78 0 0 1-.591.189c-.014 0 .126-.222.313-.493.608-.885.954-1.604 1.408-2.923.54-1.567.934-3.647 1.051-5.544.018-.279.045-.657.061-.84l.029-.333h5.447l-.036.44" fill-rule="evenodd" fill="#000"/></svg>