<svg width="32" height="32" fill="none" xmlns="http://www.w3.org/2000/svg"><path d="M15.12 3.043c-3.095.193-6.039 1.529-8.271 3.755-.769.767-1.104 1.17-1.664 2.004-1.553 2.312-2.359 5.308-2.156 8.012.213 2.841 1.216 5.358 2.986 7.496 2.924 3.531 7.597 5.275 12.092 4.513a12.92 12.92 0 0 0 7.068-3.648c1.945-1.945 3.173-4.323 3.65-7.068.506-2.916-.106-6.147-1.654-8.733a13.04 13.04 0 0 0-9.093-6.198c-.461-.076-1.949-.197-2.211-.18l-.747.047m3.9 2.389a11.02 11.02 0 0 1 7.43 7.181c.214.657.393 1.45.46 2.04l.037.334h-4.959l-.063-.654c-.279-2.86-1.166-5.472-2.603-7.666a17.96 17.96 0 0 0-.651-.934c-.328-.419-.346-.453-.254-.453.042 0 .313.068.603.152m-2.666.649c.96 1.067 1.859 2.497 2.448 3.892.56 1.33.991 3.093 1.123 4.6l.036.414h-7.922l.036-.414c.283-3.226 1.553-6.234 3.605-8.535.161-.181.309-.323.327-.317.019.007.175.169.347.36m3.571 11.346c-.132 1.507-.563 3.27-1.123 4.6a17.356 17.356 0 0 1-1.243 2.32c-.36.55-.64.909-1.409 1.806l-.142.167-.31-.342c-1.256-1.388-2.271-3.147-2.897-5.018a16.923 16.923 0 0 1-.726-3.533l-.036-.414h7.922l-.036.414m6.985-.08a11.033 11.033 0 0 1-7.417 9.078c-.532.18-1.209.343-1.159.279.479-.618.648-.852.988-1.371 1.432-2.184 2.325-4.812 2.603-7.666l.063-.654h4.959l-.037.334"/></svg>