<svg width="32" height="32" fill="none" xmlns="http://www.w3.org/2000/svg"><path d="M5.237 5.443a1.77 1.77 0 0 0-.862.938c-.105.28-.108.402-.108 3.619s.003 3.339.108 3.619c.153.408.466.742.893.952l.356.176h20.752l.356-.176c.427-.21.74-.544.893-.952.105-.28.108-.402.108-3.619s-.003-3.339-.108-3.619a1.77 1.77 0 0 0-.862-.938l-.327-.163H5.564l-.327.163m20.944 1.403c.043.053.056.931.046 3.185l-.014 3.113-.133.067c-.196.099-19.964.099-20.16 0l-.133-.067-.014-3.113c-.01-2.254.003-3.132.046-3.185.091-.109 20.271-.109 20.362 0m-3.995 1.947c-.456.15-.755.452-.883.892-.136.469.009.925.402 1.261.382.327.856.393 1.311.181.466-.217.717-.612.717-1.127 0-.487-.238-.888-.653-1.1-.236-.121-.687-.174-.894-.107m-16.949 8.65a1.77 1.77 0 0 0-.862.938c-.105.28-.108.402-.108 3.619s.003 3.339.108 3.619c.153.408.466.742.893.952l.356.176h20.752l.356-.176c.427-.21.74-.544.893-.952.105-.28.108-.402.108-3.619s-.003-3.339-.108-3.619a1.77 1.77 0 0 0-.862-.938l-.327-.163H5.564l-.327.163m20.944 1.403c.043.053.056.931.046 3.185l-.014 3.113-.133.067c-.196.099-19.964.099-20.16 0l-.133-.067-.014-3.113c-.01-2.254.003-3.132.046-3.185.091-.109 20.271-.109 20.362 0m-3.995 1.947c-.456.15-.755.452-.883.892-.136.469.009.925.402 1.261.382.327.856.393 1.311.181.466-.217.717-.612.717-1.127 0-.487-.238-.888-.653-1.1-.236-.121-.687-.174-.894-.107" fill-rule="evenodd" fill="#000"/></svg>