<svg width="32" height="32" fill="none" xmlns="http://www.w3.org/2000/svg"><path d="M5.351 5.116c-.618.223-1.052.669-1.244 1.276C4.005 6.716 4 6.877 4 10s.005 3.284.107 3.608a2.008 2.008 0 0 0 1.308 1.302c.383.115 20.787.115 21.17 0a2.008 2.008 0 0 0 1.308-1.302c.102-.324.107-.485.107-3.608s-.005-3.284-.107-3.608c-.193-.613-.631-1.058-1.256-1.278-.279-.098-.612-.101-10.649-.099-9.968.002-10.372.006-10.637.101m17.83 3.566c.52.269.789.719.789 1.318 0 .861-.615 1.485-1.467 1.487-.81.003-1.418-.577-1.478-1.411-.027-.384.075-.7.338-1.045.38-.498 1.22-.66 1.818-.349m-17.83 8.434c-.618.223-1.052.669-1.244 1.276C4.005 18.716 4 18.877 4 22s.005 3.284.107 3.608a2.008 2.008 0 0 0 1.308 1.302c.383.115 20.787.115 21.17 0a2.008 2.008 0 0 0 1.308-1.302c.102-.324.107-.485.107-3.608s-.005-3.284-.107-3.608c-.193-.613-.631-1.058-1.256-1.278-.279-.098-.612-.101-10.649-.099-9.968.002-10.372.006-10.637.101m17.83 3.566c.52.269.789.719.789 1.318 0 .861-.615 1.485-1.467 1.487-.81.003-1.418-.577-1.478-1.411-.027-.384.075-.7.338-1.045.38-.498 1.22-.66 1.818-.349"/></svg>