<svg width="32" height="32" fill="none" xmlns="http://www.w3.org/2000/svg"><path d="M9.197 4.801c-.998.126-2.038.463-2.791.902-2.105 1.229-3.461 3.374-3.622 5.727-.314 4.573 2.935 9.621 9.195 14.287 1.333.994 2.928 2.054 3.613 2.403.405.206.536.184 1.196-.209 2.699-1.605 5.869-4.136 7.839-6.258 2.649-2.853 4.107-5.529 4.519-8.295.1-.669.114-1.838.03-2.425-.331-2.315-1.936-4.474-4.076-5.486-.549-.259-.981-.399-1.687-.547-.752-.157-2.103-.171-2.773-.029a7.989 7.989 0 0 0-2.941 1.298c-.444.319-1.398 1.266-1.571 1.558-.053.092-.111.166-.128.166s-.075-.074-.128-.166c-.173-.292-1.127-1.239-1.571-1.558-.844-.608-1.973-1.11-2.898-1.29-.533-.103-1.686-.144-2.206-.078m1.888 1.551c1.701.301 3.376 1.587 4.068 3.125.09.2.189.416.22.481.135.283.767.369 1.067.144.075-.056.225-.282.334-.502.661-1.337 1.494-2.167 2.807-2.799 1.657-.798 3.715-.704 5.326.241.486.285.661.423 1.133.889 1.127 1.113 1.695 2.486 1.692 4.089-.003 2.136-.868 4.374-2.581 6.683-1.87 2.52-4.988 5.288-8.423 7.478-.506.323-.712.428-.793.402-.18-.057-2.475-1.615-3.274-2.223-4.713-3.583-7.542-7.276-8.243-10.76-.162-.804-.177-2.261-.03-2.868.283-1.17.833-2.102 1.743-2.958 1.301-1.222 3.124-1.745 4.954-1.422" fill-rule="evenodd" fill="#000"/></svg>