<svg width="32" height="32" fill="none" xmlns="http://www.w3.org/2000/svg"><path d="M21.387 4.544c-1.845.111-3.795 1.085-5.017 2.504-.185.216-.353.392-.372.392-.018 0-.156-.147-.306-.327-.977-1.174-2.545-2.096-4.174-2.454-.646-.142-2.39-.142-3.036 0-2.659.584-4.792 2.496-5.599 5.018-.294.92-.347 1.287-.347 2.403 0 1.047.055 1.511.295 2.453.389 1.537 1.209 3.24 2.309 4.799 1.957 2.774 4.995 5.57 8.7 8.005 1.448.952 1.743 1.109 2.127 1.132.323.019.334.015.966-.363 1.428-.852 3.477-2.302 4.751-3.36 1.383-1.151 3.203-2.927 4.07-3.973 2.225-2.683 3.383-5.108 3.691-7.731.084-.713.032-1.996-.106-2.596-.623-2.725-2.575-4.84-5.187-5.622-.854-.255-1.721-.343-2.765-.28"/></svg>