<svg width="32" height="32" fill="none" xmlns="http://www.w3.org/2000/svg"><path d="M6.933 4.316a1.814 1.814 0 0 0-1.172 1.161 2.4 2.4 0 0 0-.107.515c.001.196.115.649.211.837.036.072 2.098 2.165 4.58 4.651L14.959 16l-4.514 4.52c-2.482 2.486-4.544 4.579-4.58 4.651-.096.188-.21.641-.211.837 0 .092.048.324.107.515.13.421.471.828.873 1.04l.273.144h18.186l.273-.144c.402-.212.743-.619.873-1.04a2.4 2.4 0 0 0 .107-.515 2.657 2.657 0 0 0-.211-.837c-.036-.072-2.098-2.165-4.58-4.651L17.041 16l4.514-4.52c2.482-2.486 4.544-4.579 4.58-4.651.096-.188.21-.641.211-.837a2.4 2.4 0 0 0-.107-.515 1.857 1.857 0 0 0-.873-1.04l-.273-.144-9.013-.009c-4.957-.005-9.073.01-9.147.032m17.792 1.485c.1.066.117.193.044.332-.038.074-2.026 2.09-4.419 4.48L16 14.96l-4.407-4.407c-3.694-3.694-4.406-4.43-4.406-4.552 0-.081.033-.167.073-.193.089-.056 17.381-.063 17.465-.007m-4.311 15.653c2.412 2.413 4.389 4.423 4.392 4.467.012.142-.015.238-.078.278-.088.056-17.379.049-17.468-.007-.04-.026-.073-.112-.073-.192 0-.123.711-.858 4.393-4.54 2.416-2.416 4.405-4.393 4.42-4.393.015 0 2.001 1.974 4.414 4.387" fill-rule="evenodd" fill="#000"/></svg>