<svg width="32" height="32" fill="none" xmlns="http://www.w3.org/2000/svg"><path d="M19.6 1.089c-.217.097-.218.098-7.763 8.183-3.674 3.937-6.678 7.198-6.729 7.306a1.114 1.114 0 0 0-.021.824c.164.383.209.404 4.067 1.852 3.475 1.304 3.672 1.385 3.658 1.502a530.32 530.32 0 0 1-.928 4.698c-1.017 5.093-.98 4.78-.616 5.195a.977.977 0 0 0 1.12.265c.224-.095.108.027 7.772-8.184 3.623-3.881 6.641-7.154 6.707-7.275.138-.251.157-.599.046-.857-.164-.383-.209-.404-4.067-1.852-3.475-1.304-3.672-1.385-3.658-1.502.007-.068.425-2.182.928-4.698.842-4.217.909-4.591.85-4.788-.079-.264-.348-.577-.577-.673-.217-.091-.581-.089-.789.004"/></svg>