<svg width="32" height="32" fill="none" xmlns="http://www.w3.org/2000/svg"><path d="M19.632 1.347C19.463 1.465 5.5 16.401 5.353 16.62a1.087 1.087 0 0 0-.108.38c-.03.25-.02.279.148.458.164.173.523.318 3.914 1.586 2.053.768 3.753 1.414 3.777 1.436.024.022-.378 2.149-.893 4.727-.516 2.577-.938 4.758-.938 4.846a.78.78 0 0 0 .107.334c.227.372.686.494 1.007.266.128-.09 13.126-13.98 14.149-15.12a.821.821 0 0 0 .234-.473c.045-.3-.028-.467-.28-.637-.092-.062-1.819-.731-3.839-1.487-2.019-.757-3.691-1.394-3.715-1.416-.024-.022.378-2.149.893-4.727.516-2.577.938-4.754.938-4.836 0-.219-.135-.443-.36-.595-.251-.171-.526-.177-.755-.015m-1.656 6.931c-.504 2.521-.74 3.809-.718 3.921.069.345.151.383 3.816 1.756 1.917.719 3.506 1.326 3.53 1.35.04.038-11.272 12.221-11.314 12.186-.01-.008.32-1.704.734-3.769.504-2.521.74-3.809.718-3.921-.069-.345-.151-.383-3.816-1.756-1.917-.719-3.506-1.326-3.531-1.351-.041-.039 11.273-12.223 11.315-12.186.01.008-.32 1.705-.734 3.77" fill-rule="evenodd" fill="#000"/></svg>