<svg width="32" height="32" fill="none" xmlns="http://www.w3.org/2000/svg"><path d="M15.049 1.336c-1.567.279-3.033 1.396-3.744 2.851-.508 1.041-.584 1.593-.585 4.28v1.773H8.356c-2.37 0-2.823.028-3.148.196-.259.134-.624.506-.773.789l-.142.268-.014 7.423-.014 7.423.113.301c.152.407.574.829.98.981l.299.112h20.686l.299-.112c.406-.152.828-.574.98-.981l.113-.301-.014-7.423-.014-7.423-.142-.268c-.149-.283-.514-.655-.773-.789-.325-.168-.778-.196-3.143-.196h-2.358l-.025-2.147c-.027-2.255-.053-2.546-.288-3.24a5.396 5.396 0 0 0-3.591-3.416c-.458-.13-1.839-.189-2.338-.101m2.124 1.593c1.265.43 2.269 1.575 2.503 2.854.035.192.057 1.131.057 2.387v2.07H12.26l.017-2.253.016-2.254.151-.426c.435-1.232 1.465-2.177 2.676-2.458.492-.114 1.61-.07 2.053.08m8.948 8.887.119.083v7.107c0 5.456-.015 7.121-.064 7.17-.093.093-20.259.093-20.352 0-.049-.049-.064-1.711-.063-7.16 0-3.903.018-7.122.04-7.155a.29.29 0 0 1 .119-.089c.044-.017 4.581-.032 10.081-.034 8.971-.004 10.014.004 10.12.078m-10.657 2.477c-1.077.17-2.068.973-2.493 2.019-.259.636-.285 1.499-.068 2.199.117.377.409.867.726 1.218.281.311.942.737 1.31.845l.314.093v1.268c0 1.407.03 1.568.313 1.715.208.107.66.107.868 0 .283-.147.313-.308.313-1.715v-1.268l.306-.09c.374-.11.894-.438 1.238-.783 1.333-1.332 1.266-3.453-.149-4.727a3.72 3.72 0 0 0-1.163-.666c-.395-.121-1.106-.172-1.515-.108m.934 1.522c.469.076.961.481 1.191.978.104.227.132.374.132.697 0 .622-.248 1.109-.736 1.444-1.166.803-2.708-.017-2.711-1.441 0-.318.028-.462.138-.702.152-.333.49-.692.797-.849.211-.107.689-.205.871-.178l.318.051" fill-rule="evenodd" fill="#000"/></svg>