<svg width="32" height="32" fill="none" xmlns="http://www.w3.org/2000/svg"><path d="M13.333 3.314c-4.376.449-8.149 3.491-9.514 7.673-1.634 5.004.365 10.393 4.879 13.153 1.345.823 3.114 1.403 4.765 1.563 2.877.28 5.86-.63 8.153-2.486l.309-.251 2.891 2.887c1.941 1.939 2.939 2.899 3.037 2.923.23.056.417-.018.661-.262.244-.244.318-.431.262-.661-.024-.098-.984-1.096-2.923-3.037l-2.887-2.891.251-.309c1.808-2.234 2.729-5.161 2.5-7.949-.228-2.758-1.336-5.172-3.264-7.105a11.093 11.093 0 0 0-6.906-3.254 12.585 12.585 0 0 0-2.214.006m2.088 1.489c1.171.118 2.089.365 3.11.836a9.485 9.485 0 0 1 2.861 1.992c2.013 2.022 3.003 4.686 2.816 7.568-.25 3.825-2.851 7.235-6.486 8.5a9.7 9.7 0 0 1-10.097-2.311c-2.037-2.037-3.073-4.832-2.833-7.641.205-2.406 1.144-4.435 2.832-6.123 2.085-2.086 4.922-3.112 7.797-2.821" fill-rule="evenodd" fill="#000"/></svg>