<svg width="32" height="32" fill="none" xmlns="http://www.w3.org/2000/svg"><path d="M15.653 2.433a2.966 2.966 0 0 0-.266.087c-.199.076-10.638 5.971-10.937 6.176-.232.16-.441.431-.594.771-.091.201-.096.567-.096 6.533v6.32l.143.306c.079.168.247.405.374.526.28.268 10.931 6.304 11.277 6.391.329.083.702.067 1.006-.042.469-.169 10.908-6.107 11.163-6.35.127-.12.295-.357.374-.525l.143-.306V16c0-5.966-.005-6.332-.096-6.533-.153-.34-.362-.611-.594-.771-.249-.171-10.696-6.077-10.935-6.181-.168-.074-.785-.127-.962-.082m5.76 4.488 5.28 2.988V22.096l-5.306 3.003c-2.919 1.652-5.343 3.003-5.387 3.003-.044.001-2.468-1.35-5.387-3.002l-5.306-3.004V9.909l5.306-3.006c3.271-1.853 5.348-3 5.414-2.989.058.01 2.482 1.363 5.386 3.007m-6.16 3.884c-1.377.252-2.416.828-3.244 1.796-.917 1.073-1.35 2.448-1.224 3.887.192 2.191 1.776 4.046 3.932 4.605.707.183 1.859.183 2.566 0a5.326 5.326 0 0 0 3.576-3.124c.213-.524.306-.91.356-1.481.229-2.617-1.379-4.883-3.962-5.582-.312-.085-1.705-.155-2-.101m1.574 1.542c.755.16 1.592.68 2.084 1.293a3.776 3.776 0 0 1-.547 5.265c-1.351 1.114-3.377 1.114-4.728 0-1.34-1.105-1.756-2.987-1.001-4.532a3.608 3.608 0 0 1 1.74-1.739c.235-.115.583-.243.773-.284.458-.099 1.216-.1 1.679-.003" fill-rule="evenodd" fill="#000"/></svg>