<svg width="32" height="32" fill="none" xmlns="http://www.w3.org/2000/svg"><path d="M15.587 5.335a.61.61 0 0 0-.226.223c-.105.172-.107.267-.107 5.194l-.001 5.019.122.181c.209.311.755.398 1.096.174.282-.184.276-.056.276-5.391 0-4.604-.007-4.961-.094-5.134a.643.643 0 0 0-.226-.253c-.153-.076-.663-.084-.84-.013m-5.745.721c-.429.147-1.618 1.076-2.306 1.8a11.948 11.948 0 0 0-3.117 6.171c-.134.759-.189 2.355-.107 3.146a11.754 11.754 0 0 0 7.99 9.966c1.234.408 2.395.594 3.698.594 4.325 0 8.272-2.352 10.335-6.16.595-1.097.982-2.217 1.251-3.62.158-.822.17-2.912.023-3.786-.471-2.796-1.905-5.345-3.994-7.099-.998-.838-1.505-1.127-1.818-1.037-.454.131-.725.798-.46 1.135.061.078.271.254.467.391 1.175.827 2.22 1.927 2.912 3.068 2.449 4.034 1.902 9.079-1.352 12.486-3.979 4.164-10.749 4.164-14.728 0-1.765-1.848-2.748-4.138-2.858-6.658-.154-3.539 1.48-6.829 4.418-8.896.196-.137.406-.313.467-.391.138-.176.142-.442.009-.701-.197-.388-.483-.528-.83-.409" fill-rule="evenodd" fill="#000"/></svg>