<svg width="32" height="32" fill="none" xmlns="http://www.w3.org/2000/svg"><path d="M24.533 3.767c-.877.11-2.027.44-2.849.818-1.257.578-2.207 1.273-3.552 2.597l-.988.973-4.079.016-4.078.016-.372.176c-.342.162-.537.34-2.417 2.213-1.124 1.121-2.138 2.159-2.253 2.307a2.293 2.293 0 0 0-.293.506c-.11.312-.109.838.001 1.171.117.35.535.808.897.981.197.095 1.026.282 2.87.649l2.594.517 2.642 2.646L15.299 22l.516 2.587c.283 1.422.564 2.701.623 2.84.148.345.645.801 1.005.921.339.112.853.113 1.167.001.13-.047.358-.179.507-.293.148-.115 1.196-1.141 2.327-2.279 2.162-2.175 2.232-2.26 2.342-2.839.033-.177.054-1.769.054-4.181v-3.896l.976-.99c1.318-1.338 1.894-2.109 2.493-3.338.363-.744.63-1.52.806-2.346.109-.512.125-.733.125-1.734 0-.972-.015-1.191-.098-1.438a1.788 1.788 0 0 0-1.129-1.149c-.211-.074-.478-.097-1.28-.108a18.093 18.093 0 0 0-1.2.009m2.122 1.585c.08.081.091.217.088 1.117-.003.867-.021 1.102-.123 1.53-.329 1.393-.891 2.521-1.874 3.761-.186.235-2.229 2.323-4.541 4.64l-4.202 4.213-2.308-2.307-2.308-2.308 3.76-3.762c3.989-3.991 4.835-4.807 5.453-5.264 1.015-.749 2.068-1.262 3.134-1.527.733-.181 1.043-.213 1.961-.198.737.012.883.028.96.105M12.853 12.45l-2.746 2.742-2.456-.492c-1.35-.271-2.484-.511-2.52-.533-.035-.022-.064-.104-.064-.183 0-.118.372-.516 2.066-2.21l2.066-2.067H15.6l-2.747 2.743m7.374 12.416c-1.698 1.699-2.092 2.067-2.21 2.067-.079 0-.162-.029-.184-.064-.022-.036-.262-1.17-.533-2.52l-.492-2.456 2.729-2.734 2.73-2.734.013 3.187.014 3.187-2.067 2.067M8.533 19.592c-2.067.751-3.55 2.568-4.229 5.181a10.094 10.094 0 0 0-.34 2.135c-.037.725.018.918.301 1.064.215.112.832.104 1.683-.021 2.961-.436 5.163-1.799 6.176-3.824.552-1.102.517-1.541-.138-1.758-.214-.072-.304-.077-.464-.029-.261.078-.341.175-.536.649-.615 1.494-1.759 2.484-3.565 3.086-.427.143-1.68.432-1.87.432-.042 0-.052-.065-.03-.2.447-2.777 1.57-4.495 3.446-5.273.599-.248.714-.367.709-.732-.009-.688-.45-.962-1.143-.71" fill-rule="evenodd" fill="#000"/></svg>