<svg width="32" height="32" fill="none" xmlns="http://www.w3.org/2000/svg"><path d="M.603 3.33a.609.609 0 0 0-.253.237c-.107.207-.107.659 0 .867.145.28.314.313 1.64.313 1.07 0 1.202.009 1.275.093.045.051 1.106 3.681 2.358 8.067 1.252 4.385 2.346 8.124 2.431 8.308.297.641 1.013 1.232 1.748 1.444.275.079.92.088 6.705.088h6.4l.375-.118c.7-.221 1.329-.744 1.645-1.368.076-.151.909-2.97 1.851-6.265 1.371-4.798 1.705-6.028 1.678-6.176a.892.892 0 0 0-.188-.356l-.153-.171-11.132-.026L5.851 8.24l-.546-1.911c-.3-1.051-.589-2.005-.641-2.121-.12-.267-.542-.662-.866-.812-.235-.108-.341-.117-1.638-.129-1.103-.01-1.421.003-1.557.063m26.09 6.497c-.012.036-.694 2.419-1.515 5.294a608.655 608.655 0 0 1-1.546 5.371c-.092.241-.425.563-.689.665-.236.091-.598.096-6.49.096h-6.24l-.214-.114c-.249-.134-.485-.357-.589-.558-.04-.077-.746-2.502-1.57-5.388l-1.526-5.34c-.026-.088.484-.093 10.187-.093 8.149 0 10.211.013 10.192.067M9.237 25.443c-.648.324-.995.92-.961 1.65.032.671.386 1.2.996 1.486.247.116.378.141.728.141s.481-.025.728-.141c.61-.286.964-.815.996-1.486.034-.73-.313-1.326-.961-1.65-.285-.142-.383-.163-.763-.163s-.478.021-.763.163m13.028-.014c-1.35.652-1.339 2.509.019 3.166.362.175.912.193 1.316.043a1.92 1.92 0 0 0 1.038-1.038 1.76 1.76 0 0 0-.806-2.133c-.243-.133-.356-.159-.765-.175-.441-.017-.506-.006-.802.137"/></svg>