<svg width="32" height="32" fill="none" xmlns="http://www.w3.org/2000/svg"><path d="M5.617 7.331c-.255.111-.363.315-.358.675.005.365.112.557.37.665.272.114 17.484.113 17.756 0 .23-.096.348-.324.348-.671 0-.347-.118-.575-.348-.671-.268-.112-17.51-.11-17.768.002m16.906 6.053a.499.499 0 0 0-.226.307c-.038.135-.057 1.901-.057 5.349v5.146l-1.933-1.927c-1.064-1.06-1.986-1.954-2.05-1.987-.288-.145-.668.007-.909.364a.627.627 0 0 0 .014.754c.213.289 5.155 5.224 5.315 5.308.176.092.511.095.656.007.059-.036 1.299-1.265 2.756-2.732 2.822-2.841 2.803-2.818 2.665-3.181-.076-.199-.416-.513-.599-.553-.373-.082-.407-.054-2.461 1.991l-1.959 1.951-.014-5.295-.014-5.295-.175-.155c-.153-.137-.214-.156-.506-.156-.235 0-.382.031-.503.104M5.617 15.331c-.255.111-.363.315-.358.675.005.365.112.557.37.665.27.113 9.486.113 9.756 0 .23-.096.348-.324.348-.671 0-.347-.118-.575-.348-.671-.266-.111-9.512-.109-9.768.002m0 8a.726.726 0 0 0-.266.221c-.127.195-.125.704.005.902.194.297.136.293 4.176.292 3.638 0 3.725-.002 3.898-.107.452-.276.426-1.058-.043-1.292-.173-.086-.469-.093-3.894-.091-3.032.001-3.737.015-3.876.075" fill-rule="evenodd" fill="#000"/></svg>