<svg width="32" height="32" fill="none" xmlns="http://www.w3.org/2000/svg"><path d="M22.64 5.323c-.172.099-5.179 5.122-5.326 5.342-.342.515.391 1.342.943 1.063.064-.033.986-.927 2.05-1.987l1.933-1.927.003 5.173c.002 3.863.019 5.22.067 5.357.176.509 1.102.544 1.356.051.051-.099.066-1.312.067-5.353V7.818l1.96 1.951c2.055 2.046 2.089 2.074 2.462 1.992.183-.04.523-.354.599-.553.138-.363.157-.34-2.665-3.181-1.457-1.467-2.697-2.696-2.756-2.732-.153-.093-.507-.079-.693.028M5.617 7.331a.726.726 0 0 0-.266.221c-.127.195-.125.704.005.902.194.297.136.293 4.176.292 3.638 0 3.725-.002 3.898-.107.452-.276.426-1.058-.043-1.292-.173-.086-.469-.093-3.894-.091-3.032.001-3.737.015-3.876.075m0 8c-.255.111-.363.315-.358.675.005.365.112.557.37.665.27.113 9.486.113 9.756 0 .23-.096.348-.324.348-.671 0-.347-.118-.575-.348-.671-.266-.111-9.512-.109-9.768.002m0 8c-.255.111-.363.315-.358.675.005.365.112.557.37.665.272.114 17.484.113 17.756 0 .23-.096.348-.324.348-.671 0-.347-.118-.575-.348-.671-.268-.112-17.51-.11-17.768.002" fill-rule="evenodd" fill="#000"/></svg>