<svg width="32" height="32" fill="none" xmlns="http://www.w3.org/2000/svg"><path d="M15.59 3.339c-.332.164-.337.199-.337 2.661 0 1.915.012 2.249.084 2.401.22.462 1.106.462 1.326 0 .126-.266.126-4.536 0-4.802-.151-.318-.69-.448-1.073-.26M7.191 6.84c-.352.215-.52.527-.447.827.041.166 3.101 3.273 3.356 3.408.435.23 1.144-.379 1.022-.878-.04-.159-3.101-3.271-3.346-3.401-.202-.106-.358-.095-.585.044m16.996-.019c-.293.184-3.271 3.223-3.309 3.376-.053.217.064.494.295.703.25.226.512.289.727.175.255-.135 3.315-3.242 3.356-3.408.073-.3-.095-.612-.447-.827-.239-.146-.412-.151-.622-.019M3.59 15.339c-.454.224-.448 1.107.009 1.324.266.126 4.536.126 4.802 0 .462-.22.462-1.106 0-1.326-.265-.125-4.555-.124-4.811.002m20 0c-.454.224-.448 1.107.009 1.324.152.072.486.084 2.401.084 2.473 0 2.5-.004 2.663-.346.185-.39.056-.913-.262-1.064-.265-.125-4.555-.124-4.811.002M10.107 20.93c-.207.093-3.31 3.217-3.36 3.381-.067.224.02.47.246.696.226.226.472.313.696.246.15-.046 3.271-3.135 3.386-3.353.111-.209.053-.47-.157-.709-.161-.183-.433-.34-.583-.336a.91.91 0 0 0-.228.075m11.305-.002c-.195.085-.492.412-.537.593a.691.691 0 0 0 .003.279c.043.178 3.173 3.337 3.398 3.43.466.193 1.125-.426.977-.919-.052-.173-3.16-3.292-3.371-3.383-.208-.09-.263-.09-.47 0m-5.822 2.411c-.332.164-.337.199-.337 2.661 0 2.473.004 2.5.346 2.663.39.185.913.056 1.064-.262.126-.266.126-4.536 0-4.802-.151-.318-.69-.448-1.073-.26" fill-rule="evenodd" fill="#000"/></svg>