<svg width="32" height="32" fill="none" xmlns="http://www.w3.org/2000/svg"><path d="m6.64 5.28-3.147.027-.25.123a1.949 1.949 0 0 0-.838.863l-.138.294v5.893c0 5.681.003 5.903.102 6.158.128.333.507.743.857.927l.267.142 3.014.015 3.014.015 2.453 4.89c1.767 3.523 2.492 4.918 2.593 4.991.192.137.556.169 1.048.09 1.917-.305 3.32-1.503 3.936-3.361.149-.449.151-.471.171-2.011l.02-1.557 3.742-.016 3.743-.016.346-.125c.994-.359 1.641-1.101 1.853-2.127l.089-.428-.764-6.127c-.419-3.369-.796-6.29-.837-6.49-.114-.561-.311-.922-.736-1.349-.415-.417-.84-.664-1.311-.763-.322-.068-13.426-.107-19.227-.058m2.587 7.227v5.733l-2.654-.001c-1.578 0-2.685-.021-2.733-.051-.07-.045-.082-.739-.094-5.628-.01-3.816.004-5.611.042-5.682.054-.102.129-.105 2.747-.105h2.692v5.734m16.577-5.595c.285.142.478.351.587.635.107.28 1.565 12.114 1.545 12.543-.023.508-.198.774-.656 1.003l-.32.16-4.162.027c-4.663.03-4.388.005-4.502.413-.033.12-.056.887-.056 1.911 0 1.89-.028 2.151-.294 2.728a3.237 3.237 0 0 1-1.599 1.615c-.307.139-.867.299-.904.259-.01-.011-1.065-2.113-2.344-4.673l-2.326-4.653V6.773h14.753l.278.139" fill-rule="evenodd" fill="#000"/></svg>