<svg width="32" height="32" fill="none" xmlns="http://www.w3.org/2000/svg"><path d="M14.732 2.3a.68.68 0 0 0-.32.255c-.08.113-1.213 2.343-2.518 4.957l-2.372 4.751-3.014.015-3.015.015-.267.142c-.35.184-.729.594-.857.927-.099.255-.102.477-.102 6.158v5.893l.138.294c.156.33.506.706.798.854.107.055.348.126.536.158.242.042 3.497.054 11.168.042 9.857-.015 10.848-.025 11.072-.104.495-.176.83-.387 1.199-.758.425-.427.622-.788.736-1.349.041-.2.418-3.121.837-6.49l.764-6.127-.09-.433c-.117-.569-.365-1.045-.737-1.416a3.37 3.37 0 0 0-1.13-.714c-.12-.043-1.316-.07-3.985-.089l-3.813-.028-.03-1.573c-.029-1.543-.032-1.582-.179-2.027-.265-.801-.578-1.34-1.095-1.886a4.715 4.715 0 0 0-2.929-1.473c-.533-.061-.562-.061-.795.006m1.256 1.619c.413.131.89.407 1.217.704.454.413.867 1.151.977 1.747.034.184.059 1.041.061 2.053.003 1.936.018 2.039.317 2.214.183.107.274.11 4.373.136l4.187.027.238.133c.13.074.31.237.399.364.136.194.164.289.179.613.02.431-1.438 12.247-1.551 12.569-.081.23-.411.568-.67.686-.178.081-.827.09-7.568.103l-7.374.015V13.12l2.334-4.667c1.283-2.566 2.362-4.666 2.397-4.666.035 0 .253.059.484.132M9.227 19.521v5.762l-2.671-.015c-2.582-.014-2.674-.018-2.748-.119-.117-.161-.086-11.262.032-11.337.048-.03 1.155-.051 2.733-.051l2.654-.001v5.761" fill-rule="evenodd" fill="#000"/></svg>