<svg width="32" height="32" fill="none" xmlns="http://www.w3.org/2000/svg"><path d="M14.459 2.173c-.223.143-.295.279-2.651 4.987L9.386 12H6.598c-2.347 0-2.839.013-3.106.083-.763.198-1.313.799-1.461 1.596-.039.214-.057 2.077-.057 5.837.001 5.992.001 5.981.292 6.478.189.322.56.653.925.824l.302.142 11.064.014c12.193.015 11.327.037 12.052-.316.5-.244 1.056-.812 1.298-1.325.103-.22.215-.52.247-.666.125-.561 1.563-12.278 1.561-12.72-.004-1.351-1.025-2.602-2.344-2.875-.189-.039-1.463-.059-3.827-.059H20l-.001-1.24c0-1.383-.066-1.857-.36-2.612-.718-1.845-2.577-3.134-4.518-3.134-.381 0-.46.017-.662.146M9.013 19.52v5.493H4V14.027h5.013v5.493"/></svg>