<svg width="32" height="32" fill="none" xmlns="http://www.w3.org/2000/svg"><path d="M3.44 5.088a2.125 2.125 0 0 0-1.174.918c-.291.497-.291.486-.292 6.478 0 3.751.018 5.625.057 5.84a2.095 2.095 0 0 0 1.169 1.51l.293.139 2.948.016 2.948.015 2.377 4.758c1.308 2.617 2.441 4.826 2.519 4.909.246.263.42.325.888.317 1.912-.033 3.761-1.332 4.461-3.135.3-.772.365-1.238.365-2.626l.001-1.24h3.544c2.364 0 3.638-.02 3.827-.059 1.319-.273 2.34-1.524 2.344-2.875.002-.442-1.436-12.159-1.561-12.72-.211-.952-.923-1.757-1.899-2.148l-.362-.145-11.12-.01c-8.874-.008-11.163.003-11.333.058M9 12.493 8.987 18l-2.494.014L4 18.028V6.987h5.014L9 12.493"/></svg>