<svg width="32" height="32" fill="none" xmlns="http://www.w3.org/2000/svg"><path d="M15.787 2.262c-.133.048-1.081.965-3.306 3.197-1.715 1.721-3.148 3.183-3.184 3.249-.186.334.014.794.434.997.433.21.371.26 3.082-2.443l2.44-2.433v5.698c0 6.315-.02 5.962.346 6.136.227.107.575.107.802 0 .366-.174.346.179.346-6.136V4.829l2.44 2.433c2.704 2.695 2.65 2.653 3.074 2.447.419-.202.626-.671.442-1.001-.075-.137-6.261-6.35-6.383-6.412a.65.65 0 0 0-.533-.034M3.52 15.326a1.742 1.742 0 0 0-1.225 1.314c-.045.214-.057 1.443-.045 4.533l.017 4.24.138.294c.182.388.574.767.95.919l.298.121h24.694l.298-.121c.376-.152.768-.531.95-.919l.138-.294.017-4.24c.013-3.118 0-4.317-.046-4.533-.117-.545-.458-.97-.986-1.23l-.265-.13-3.317-.015c-3.613-.017-3.584-.019-3.781.281-.126.193-.126.715 0 .908.193.293.186.293 3.602.293h3.147l.082.125c.073.111.081.602.068 4.184-.011 3.244-.028 4.073-.083 4.128-.103.103-24.239.103-24.342 0-.055-.055-.072-.884-.083-4.128-.013-3.582-.005-4.073.068-4.184l.082-.125h3.147c3.416 0 3.409 0 3.602-.293.126-.193.126-.715 0-.908-.193-.294-.178-.293-3.67-.289-2.376.003-3.278.021-3.455.069m19.733 4.458c-1.15.227-1.361 1.794-.311 2.317.874.436 1.877-.236 1.79-1.197-.031-.341-.122-.546-.34-.764a1.303 1.303 0 0 0-1.139-.356" fill-rule="evenodd" fill="#000"/></svg>