<svg width="32" height="32" fill="none" xmlns="http://www.w3.org/2000/svg"><path d="M6.804 6.268c-.382.132-.655.522-.589.841.028.136.925 1.062 4.39 4.531L14.959 16l-4.354 4.36c-3.373 3.376-4.363 4.397-4.389 4.524-.089.433.463.99.893.901.136-.028 1.062-.925 4.531-4.39L16 17.041l4.36 4.354c3.469 3.465 4.395 4.362 4.531 4.39.43.089.982-.468.893-.901-.026-.127-1.016-1.148-4.389-4.524L17.041 16l4.354-4.36c3.465-3.469 4.362-4.395 4.39-4.531.095-.456-.5-.993-.954-.863-.117.034-1.417 1.301-4.498 4.381L16 14.96l-4.333-4.333C8.586 7.547 7.286 6.28 7.169 6.246a.604.604 0 0 0-.365.022" fill-rule="evenodd" fill="#000"/></svg>